# xmcd CD database file
#
# Track frame offsets:
#	150
#	35786
#	112718
#	147017
#	202902
#	273437
#
# Disc length: 4195 seconds
#
# Revision: 0
# Processed by: cddbd v1.5.2PL0 Copyright (c) Steve Scherf et al.
# Submitted via: CDex 1.70beta2
#
DISCID=4c106106
DTITLE=Vinny Golia - The Other Bridge (Oakland 1999) - Large Ensemble [CD1]
DYEAR=1999
DGENRE=Jazz
TTITLE0=No One Had Ever Waved To A Lifeless Object Before
TTITLE1=Thread For Fred
TTITLE2=Something Heard
TTITLE3=The Evasion Of Chaos - Part Two
TTITLE4=Bot
TTITLE5=The Evasion Of Chaos - Part One
EXTD=YEAR: 1999
EXTT0=
EXTT1=
EXTT2=
EXTT3=
EXTT4=
EXTT5=
PLAYORDER=
